# xmcd CD database file
#
# Track frame offsets:
#	150
#	13722
#	28617
#	37900
#	51592
#	55982
#	75880
#	89785
#	95402
#	101510
#	114175
#	126292
#	139755
#	153432
#	160735
#	173135
#
# Disc length: 2482 seconds
#
# Revision: 1
# Processed by: cddbd v1.4PL0 Copyright (c) Steve Scherf et al.
# Submitted via: CDex 1.40Release
#
DISCID=c609b010
DTITLE=Leadbelly - Masters
DYEAR=1900
DGENRE=Blues
TTITLE0=Match Box Blues
TTITLE1=The Bourgeois Blues
TTITLE2=Meddley: (a) Looky Looky Yonder (b) Black Betty
TTITLE3=My Friend Blind Lemon
TTITLE4=Can't You Line 'Em
TTITLE5=John Hardy
TTITLE6=Gallis Pole
TTITLE7=Borrow Love and Go
TTITLE8=Big Fat Woman
TTITLE9=Baby You Don't Love Me No More
TTITLE10=Bull Crow
TTITLE11=Red River Blues
TTITLE12=Alberta
TTITLE13=Poor Howard
TTITLE14=Kansas City Papa
TTITLE15=C.C. Rider
EXTD=ID3G: 0
EXTT0=
EXTT1=
EXTT2=
EXTT3=
EXTT4=
EXTT5=
EXTT6=
EXTT7=
EXTT8=
EXTT9=
EXTT10=
EXTT11=
EXTT12=
EXTT13=
EXTT14=
EXTT15=
PLAYORDER=
